# xmcd
#
# Track frame offsets: 
#        183
#        18333
#        41133
#        61383
#        78033
#        98733
#        119983
#        137058
#        154283
#        171908
#        192783
#        208983
#        225333
#        243158
#        261283
#        280658
#        296658
#        313333
#
# Disc length: 4532 seconds
#
# Revision: 6
# Processed by: cddbd v1.5.1PL2 Copyright (c) Steve Scherf et al.
# Submitted via: ExactAudioCopy v0.95b3
#
DISCID=0811b212
DTITLE=Various Artist - 18 Top Hits 1993-4
DYEAR=1993
DGENRE=Top 100
TTITLE0=Snow - Informer
TTITLE1=The Beloved - Sweet Harmony
TTITLE2=Haddaway - What Is Love
TTITLE3=Ace Of Base - Wheel Of Fortune
TTITLE4=Co. Ro feat. Tarlisa - Because The Night
TTITLE5=Duran Duran - Ordinary World 
TTITLE6=U 96 - Love Sees No Colour
TTITLE7=I.Q. - Psycho (Get Out Of My Life)
TTITLE8=En-Rage - Why Don't You
TTITLE9=Annie Lennox - Little Bird
TTITLE10=Al Bano and Romina Power - Domani, Domani
TTITLE11=Blue System - History
TTITLE12=Beautiful World - In The Beginning
TTITLE13=East 17 - Deep
TTITLE14=Culture Beat - Mr. Vain
TTITLE15=Lenny Kravitz - Are You Gonna Go My Way
TTITLE16=Usura - Open Your Mind
TTITLE17=Intrance feat. D-Sign - Te Quierro
EXTD=YEAR: 1993
EXTT0=Snow
EXTT1=The Beloved
EXTT2=Haddaway
EXTT3=Ace Of Base
EXTT4=Co. Ro feat. Tarlisa
EXTT5=Duran Duran
EXTT6=U 96
EXTT7=Psycho
EXTT8=En-Rage
EXTT9=Annie Lennox
EXTT10=Al Bano and Romina Power
EXTT11=
EXTT12=Beautiful World
EXTT13=East 17
EXTT14=Culture Beat
EXTT15=Lenny Kravitz
EXTT16=Usura
EXTT17=Intrance featuring D-Sign
PLAYORDER=
